<?xml version="1.0" encoding="UTF-8" standalone="no"?>
<svg
   version="1.1"
   viewBox="-5.0 -10.0 110.0 135.0"
   id="svg2"
   sodipodi:docname="ai-generated.svg"
   inkscape:version="1.4.4 (dcaf3e7d9e, 2026-05-05)"
   xmlns:inkscape="http://www.inkscape.org/namespaces/inkscape"
   xmlns:sodipodi="http://sodipodi.sourceforge.net/DTD/sodipodi-0.dtd"
   xmlns="http://www.w3.org/2000/svg"
   xmlns:svg="http://www.w3.org/2000/svg">
  <defs
     id="defs2" />
  <sodipodi:namedview
     id="namedview2"
     pagecolor="#505050"
     bordercolor="#eeeeee"
     borderopacity="1"
     inkscape:showpageshadow="0"
     inkscape:pageopacity="0"
     inkscape:pagecheckerboard="0"
     inkscape:deskcolor="#505050"
     inkscape:zoom="6.2444444"
     inkscape:cx="55.008897"
     inkscape:cy="67.5"
     inkscape:window-width="1876"
     inkscape:window-height="1052"
     inkscape:window-x="0"
     inkscape:window-y="0"
     inkscape:window-maximized="1"
     inkscape:current-layer="svg2" />
  <path
     fill="#cc0000"
     d="m26.562 31.25c0-2.5859-2.1016-4.6875-4.6875-4.6875s-4.6875 2.1016-4.6875 4.6875 2.1016 4.6875 4.6875 4.6875 4.6875-2.1016 4.6875-4.6875zm-6.25 0c0-0.86328 0.69922-1.5625 1.5625-1.5625s1.5625 0.69922 1.5625 1.5625-0.69922 1.5625-1.5625 1.5625-1.5625-0.69922-1.5625-1.5625zm17.188-4.6875c-2.5859 0-4.6875 2.1016-4.6875 4.6875s2.1016 4.6875 4.6875 4.6875 4.6875-2.1016 4.6875-4.6875-2.1016-4.6875-4.6875-4.6875zm0 6.25c-0.86328 0-1.5625-0.69922-1.5625-1.5625s0.69922-1.5625 1.5625-1.5625 1.5625 0.69922 1.5625 1.5625-0.69922 1.5625-1.5625 1.5625zm1.5625 9.375c0 0.86328-0.69922 1.5625-1.5625 1.5625h-15.625c-0.86328 0-1.5625-0.69922-1.5625-1.5625s0.69922-1.5625 1.5625-1.5625h15.625c0.86328 0 1.5625 0.69922 1.5625 1.5625zm55.523-13.875-13.527-13.523c-1.4727-1.4766-3.4375-2.2891-5.5234-2.2891h-30.223c-3.7734 0-6.9297 2.6875-7.6562 6.25h-6.4062v-3.3477c2.6875-0.69922 4.6875-3.125 4.6875-6.0273 0-3.4453-2.8047-6.25-6.25-6.25s-6.25 2.8047-6.25 6.25c0 2.9023 2 5.3281 4.6875 6.0273v3.3477h-14.062c-2.5859 0-4.6875 2.1016-4.6875 4.6875v4.6875h-1.5625c-2.5859 0-4.6875 2.1016-4.6875 4.6875v3.125c0 2.5859 2.1016 4.6875 4.6875 4.6875h1.5625v4.6875c0 2.5859 2.1016 4.6875 4.6875 4.6875h1.5625v15.625c0 4.3086 3.5039 7.8125 7.8125 7.8125h5.6016l-2.0195 2.0195c-0.60938 0.60938-0.60938 1.5977 0 2.2109 0.30469 0.30469 0.70703 0.45703 1.1055 0.45703s0.80078-0.15234 1.1055-0.45703l4.6875-4.6875c0.60938-0.60938 0.60938-1.5977 0-2.2109l-4.6875-4.6875c-0.60938-0.60938-1.5977-0.60938-2.2109 0-0.60938 0.60938-0.60938 1.5977 0 2.2109l2.0195 2.0195h-5.6016c-2.5859 0-4.6875-2.1016-4.6875-4.6875v-15.625h18.75v39.062c0 4.3086 3.5039 7.8125 7.8125 7.8125h43.75c4.3086 0 7.8125-3.5039 7.8125-7.8125v-55.223c0-2.0859-0.8125-4.0508-2.2891-5.5273zm-85.211 9.1875h-1.5625c-0.86328 0-1.5625-0.69922-1.5625-1.5625v-3.125c0-0.86328 0.69922-1.5625 1.5625-1.5625h1.5625zm68.75-21.09c0.26172 0.17188 0.50391 0.36719 0.72656 0.58984l12.691 12.688h-10.293c-1.7227 0-3.125-1.4023-3.125-3.125zm-51.562-7.0352c0-1.7227 1.4023-3.125 3.125-3.125s3.125 1.4023 3.125 3.125-1.4023 3.125-3.125 3.125-3.125-1.4023-3.125-3.125zm-12.5 37.5c-0.86328 0-1.5625-0.69922-1.5625-1.5625v-21.875c0-0.86328 0.69922-1.5625 1.5625-1.5625h31.25c0.86328 0 1.5625 0.69922 1.5625 1.5625v21.875c0 0.86328-0.69922 1.5625-1.5625 1.5625zm79.688 42.188c0 2.5859-2.1016 4.6875-4.6875 4.6875h-43.75c-2.5859 0-4.6875-2.1016-4.6875-4.6875v-39.062h4.6875c2.5859 0 4.6875-2.1016 4.6875-4.6875v-4.6875h1.5625c2.5859 0 4.6875-2.1016 4.6875-4.6875v-3.125c0-2.5859-2.1016-4.6875-4.6875-4.6875h-1.5625v-4.6875c0-2.5859-2.1016-4.6875-4.6875-4.6875h-4.3984c0.64453-1.8164 2.3633-3.125 4.3984-3.125h29.688v10.938c0 3.4453 2.8047 6.25 6.25 6.25h12.379c0.074219 0.33594 0.12109 0.67578 0.12109 1.0273zm-43.75-51.562v-6.25h1.5625c0.86328 0 1.5625 0.69922 1.5625 1.5625v3.125c0 0.86328-0.69922 1.5625-1.5625 1.5625zm39.062 23.438c0 0.86328-0.69922 1.5625-1.5625 1.5625h-40.625c-0.86328 0-1.5625-0.69922-1.5625-1.5625s0.69922-1.5625 1.5625-1.5625h40.625c0.86328 0 1.5625 0.69922 1.5625 1.5625zm0-7.8125c0 0.86328-0.69922 1.5625-1.5625 1.5625h-29.688c-0.86328 0-1.5625-0.69922-1.5625-1.5625s0.69922-1.5625 1.5625-1.5625h29.688c0.86328 0 1.5625 0.69922 1.5625 1.5625zm-10.938 31.25c0 0.86328-0.69922 1.5625-1.5625 1.5625h-29.688c-0.86328 0-1.5625-0.69922-1.5625-1.5625s0.69922-1.5625 1.5625-1.5625h29.688c0.86328 0 1.5625 0.69922 1.5625 1.5625zm10.938-39.062c0 0.86328-0.69922 1.5625-1.5625 1.5625h-29.688c-0.86328 0-1.5625-0.69922-1.5625-1.5625s0.69922-1.5625 1.5625-1.5625h29.688c0.86328 0 1.5625 0.69922 1.5625 1.5625zm0 39.062c0 0.86328-0.69922 1.5625-1.5625 1.5625h-4.6875c-0.86328 0-1.5625-0.69922-1.5625-1.5625s0.69922-1.5625 1.5625-1.5625h4.6875c0.86328 0 1.5625 0.69922 1.5625 1.5625zm0-15.625c0 0.86328-0.69922 1.5625-1.5625 1.5625h-40.625c-0.86328 0-1.5625-0.69922-1.5625-1.5625s0.69922-1.5625 1.5625-1.5625h40.625c0.86328 0 1.5625 0.69922 1.5625 1.5625zm0 7.8125c0 0.86328-0.69922 1.5625-1.5625 1.5625h-40.625c-0.86328 0-1.5625-0.69922-1.5625-1.5625s0.69922-1.5625 1.5625-1.5625h40.625c0.86328 0 1.5625 0.69922 1.5625 1.5625z"
     id="path1" />
</svg>
